#tb 0: 1/24
0,          0,          0,        1,    37440, 0xd1bc5235
0,          2,          2,        1,    37440, 0x158e6167
0,          3,          3,        1,    37440, 0x0faa4481
0,          4,          4,        1,    37440, 0x427158c5
0,          5,          5,        1,    37440, 0x4eb53ac6
0,          6,          6,        1,    37440, 0x99304eea
0,          7,          7,        1,    37440, 0xcc554a6f
0,          8,          8,        1,    37440, 0xabeb6c35
0,          9,          9,        1,    37440, 0xddfc7e18
0,         10,         10,        1,    37440, 0xaa79b504
0,         11,         11,        1,    37440, 0x5cb1c839
0,         12,         12,        1,    37440, 0x7e36ecca
0,         13,         13,        1,    37440, 0xf486f425
0,         14,         14,        1,    37440, 0xf1b4138f
0,         15,         15,        1,    37440, 0x966f1a49
0,         16,         16,        1,    37440, 0x5eff21da
0,         17,         17,        1,    37440, 0x333f39b1
0,         18,         18,        1,    37440, 0x62e5963e
0,         19,         19,        1,    37440, 0x26930671
0,         20,         20,        1,    37440, 0x27b4bb6c
0,         21,         21,        1,    37440, 0xdbd07766
0,         22,         22,        1,    37440, 0x04260104
0,         23,         23,        1,    37440, 0x9b1e078b
0,         24,         24,        1,    37440, 0xdf4e2474
0,         25,         25,        1,    37440, 0x57d44986
0,         26,         26,        1,    37440, 0x8780e34c
0,         27,         27,        1,    37440, 0xf80c8bc0
0,         28,         28,        1,    37440, 0x630a7583
0,         29,         29,        1,    37440, 0x235ae089
0,         30,         30,        1,    37440, 0x984b8f0e
0,         31,         31,        1,    37440, 0x865cf592
0,         32,         32,        1,    37440, 0x70f376f2
0,         33,         33,        1,    37440, 0x8b30c035
0,         34,         34,        1,    37440, 0xde772d79
0,         35,         35,        1,    37440, 0x8e076be5
0,         36,         36,        1,    37440, 0x3dc2bd9f
0,         37,         37,        1,    37440, 0xb782eb67
0,         38,         38,        1,    37440, 0x02025d73
0,         39,         39,        1,    37440, 0x86bbbce8
0,         40,         40,        1,    37440, 0xd6554f62
0,         41,         41,        1,    37440, 0xb831b917
0,         42,         42,        1,    37440, 0x80643560
0,         43,         43,        1,    37440, 0x4ecf9afd
0,         44,         44,        1,    37440, 0x9ce51e0b
0,         45,         45,        1,    37440, 0x179466cd
0,         46,         46,        1,    37440, 0x145fc900
0,         47,         47,        1,    37440, 0xb1b50402
0,         48,         48,        1,    37440, 0x0a87552a
0,         49,         49,        1,    37440, 0x8f53821d
0,         50,         50,        1,    37440, 0x1c07c825
0,         51,         51,        1,    37440, 0x49dde82f
0,         52,         52,        1,    37440, 0xb1a32605
0,         53,         53,        1,    37440, 0x410f3cd5
0,         54,         54,        1,    37440, 0xff5e6696
0,         55,         55,        1,    37440, 0x96f678c9
0,         56,         56,        1,    37440, 0x6c9e9e68
0,         57,         57,        1,    37440, 0x79a2a655
0,         58,         58,        1,    37440, 0xf237bd6c
0,         59,         59,        1,    37440, 0x4051b611
0,         60,         60,        1,    37440, 0xc7ccc918
0,         61,         61,        1,    37440, 0xbd02c122
0,         62,         62,        1,    37440, 0xacb3c881
0,         63,         63,        1,    37440, 0x2abdb940
0,         64,         64,        1,    37440, 0x19d5be85
0,         65,         65,        1,    37440, 0xfa5fb1ba
0,         66,         66,        1,    37440, 0xdae7a7aa
0,         67,         67,        1,    37440, 0x6b0f9f69
0,         68,         68,        1,    37440, 0x353e8201
0,         69,         69,        1,    37440, 0xa21443aa
0,         70,         70,        1,    37440, 0x66c8d7e0
0,         71,         71,        1,    37440, 0xc332068e
0,         72,         72,        1,    37440, 0x71431b9b
0,         73,         73,        1,    37440, 0x392f15cb
0,         74,         74,        1,    37440, 0x95a146bb
0,         75,         75,        1,    37440, 0x7c51740a
0,         76,         76,        1,    37440, 0xa3bdd43c
0,         77,         77,        1,    37440, 0xa079f965
0,         78,         78,        1,    37440, 0xa95423ea
0,         79,         79,        1,    37440, 0xd1bd2c67
0,         80,         80,        1,    37440, 0x6cf82844
0,         81,         81,        1,    37440, 0xd401e128
0,         82,         82,        1,    37440, 0x1f7db118
0,         83,         83,        1,    37440, 0x2e0a65a9
0,         84,         84,        1,    37440, 0x321c1c40
0,         85,         85,        1,    37440, 0x95b2a127
0,         86,         86,        1,    37440, 0xa1471f4b
0,         87,         87,        1,    37440, 0x29d148c0
0,         88,         88,        1,    37440, 0x24c07107
0,         89,         89,        1,    37440, 0x0ead678d
0,         90,         90,        1,    37440, 0xd0ca6495
0,         91,         91,        1,    37440, 0x08f935ef
0,         92,         92,        1,    37440, 0xb5ec3c38
0,         93,         93,        1,    37440, 0xce371628
0,         94,         94,        1,    37440, 0x68170812
0,         95,         95,        1,    37440, 0xe222699e
0,         96,         96,        1,    37440, 0xd688706c
0,         97,         97,        1,    37440, 0x81a033f9
0,         98,         98,        1,    37440, 0x28bd0fbf
0,         99,         99,        1,    37440, 0xe36db7b2
0,        100,        100,        1,    37440, 0x30559121
0,        101,        101,        1,    37440, 0xbf2b5fc8
0,        102,        102,        1,    37440, 0x4b427672
0,        103,        103,        1,    37440, 0x0544b0b4
0,        104,        104,        1,    37440, 0x38a70b06
0,        105,        105,        1,    37440, 0x4ed62607
0,        106,        106,        1,    37440, 0x6efe8ea6
0,        107,        107,        1,    37440, 0x81197e11
0,        108,        108,        1,    37440, 0xf4060050
0,        109,        109,        1,    37440, 0xaf205f13
0,        110,        110,        1,    37440, 0x5fa21382
0,        111,        111,        1,    37440, 0x8627ad05
0,        112,        112,        1,    37440, 0xf7130133
0,        113,        113,        1,    37440, 0x76dea7ba
0,        114,        114,        1,    37440, 0x1dbae1be
0,        115,        115,        1,    37440, 0x74a933f7
0,        116,        116,        1,    37440, 0xbdcd41a3
0,        117,        117,        1,    37440, 0xf0fe8c1c
0,        118,        118,        1,    37440, 0xc0036222
0,        119,        119,        1,    37440, 0x3058385c
0,        120,        120,        1,    37440, 0x68141016
